<?xml version="1.0" standalone="no"?>
<!DOCTYPE svg PUBLIC "-//W3C//DTD SVG 20010904//EN"
 "http://www.w3.org/TR/2001/REC-SVG-20010904/DTD/svg10.dtd">
<svg version="1.0" xmlns="http://www.w3.org/2000/svg"
 width="1024.000000pt" height="1024.000000pt" viewBox="0 0 1024.000000 1024.000000"
 preserveAspectRatio="xMidYMid meet">

<g transform="translate(0.000000,1024.000000) scale(0.100000,-0.100000)"
fill="#000000" stroke="none">
<path d="M5045 9424 c-361 -33 -530 -64 -784 -146 -128 -41 -319 -118 -358
-143 -14 -10 -46 -14 -90 -14 -130 2 -230 -45 -458 -215 -164 -123 -293 -211
-485 -332 -260 -163 -386 -268 -472 -394 -128 -186 -99 -389 90 -638 170 -222
481 -515 629 -592 40 -20 41 -22 31 -51 -17 -49 -4 -175 26 -270 l28 -85 -28
-30 c-53 -55 -179 -215 -205 -260 -39 -67 -52 -148 -38 -228 l11 -65 -63 -88
c-35 -48 -97 -130 -138 -181 -42 -51 -122 -150 -179 -220 -147 -182 -311 -419
-403 -584 -44 -79 -84 -147 -89 -152 -15 -15 -12 81 6 175 8 46 34 139 56 207
38 115 40 125 27 159 -46 120 -212 99 -372 -48 -105 -96 -214 -270 -268 -431
-40 -119 -52 -199 -53 -348 -1 -207 34 -350 134 -545 53 -105 55 -112 47 -155
-6 -25 -10 -124 -11 -220 -1 -245 32 -409 136 -678 47 -120 47 -128 34 -407
-9 -178 1 -246 50 -353 38 -81 253 -291 342 -334 78 -37 167 -47 230 -25 39
14 46 13 75 -2 24 -12 59 -16 137 -16 88 0 113 4 155 23 27 13 59 31 70 41 15
14 41 20 101 23 62 4 95 11 137 32 105 51 190 173 205 294 4 35 10 45 30 53
29 11 41 -1 42 -41 1 -28 37 -222 70 -375 20 -93 21 -109 11 -225 -14 -153 -4
-246 39 -334 61 -127 195 -223 327 -233 46 -4 74 -11 88 -24 11 -10 47 -30 80
-46 54 -25 71 -28 165 -28 95 0 111 3 158 27 51 26 53 27 95 12 23 -9 75 -16
117 -16 97 0 176 29 237 87 25 24 55 46 66 49 44 11 116 65 147 112 86 124 92
295 16 459 -13 28 -58 97 -101 155 -87 118 -135 209 -135 258 0 38 -10 39 180
-20 234 -72 236 -73 467 -73 l212 0 39 -65 c43 -72 55 -104 72 -200 25 -143
102 -243 234 -306 122 -58 284 -74 353 -35 12 6 28 4 53 -9 65 -33 142 -50
230 -50 99 0 176 19 219 55 26 23 34 24 72 16 56 -13 132 2 181 34 50 34 87
91 109 172 48 171 6 324 -136 503 -80 101 -110 158 -136 258 -27 107 -25 237
7 387 14 66 45 217 69 335 24 118 60 285 79 370 60 265 70 358 71 625 0 137
-6 291 -13 359 -11 99 -12 164 -1 369 7 143 9 331 6 441 -10 304 -42 475 -119
638 l-41 87 23 77 c33 114 26 196 -28 309 l-42 86 26 62 c30 76 59 186 74 292
15 96 18 358 7 471 l-8 81 61 -30 c82 -41 187 -49 247 -18 64 32 97 81 198
286 174 355 236 545 239 730 1 106 0 113 -32 177 -61 125 -206 236 -452 348
-190 87 -307 148 -465 243 -258 156 -324 179 -499 177 -95 -2 -107 0 -214 39
-229 83 -484 146 -692 170 -100 11 -308 20 -365 15z m234 -154 c288 -20 529
-78 853 -207 117 -46 118 -46 172 -33 68 16 149 8 225 -23 31 -13 125 -65 210
-116 85 -52 263 -147 397 -211 263 -128 340 -175 401 -244 111 -126 84 -302
-116 -771 -86 -199 -128 -271 -166 -281 -73 -18 -157 39 -204 139 -16 34 -50
130 -76 212 -206 665 -311 910 -418 975 -71 44 -157 10 -157 -61 0 -25 12 -45
55 -90 75 -78 149 -234 214 -449 189 -630 209 -725 218 -1035 10 -375 -49
-601 -200 -770 l-36 -40 -1 52 c0 73 -20 254 -30 278 -4 11 -22 63 -40 115
-55 162 -179 385 -271 485 l-41 44 54 24 c29 14 63 35 75 48 30 33 60 104 68
162 4 26 9 47 12 47 3 0 24 -16 48 -36 52 -42 113 -56 134 -30 9 11 11 22 5
34 -17 34 -211 207 -264 236 -70 38 -169 47 -236 21 -88 -34 -214 -189 -214
-264 0 -47 41 -109 117 -177 122 -110 217 -238 312 -423 100 -194 149 -408
138 -606 -7 -129 -33 -202 -96 -265 -89 -89 -190 -88 -321 5 -83 60 -176 106
-268 136 -64 20 -73 26 -68 44 3 11 6 38 6 60 1 38 3 41 63 75 134 76 261 244
261 345 0 61 -37 138 -88 182 -130 115 -482 108 -639 -11 -118 -89 -123 -257
-11 -343 20 -15 44 -37 53 -47 65 -77 90 -100 132 -122 26 -13 66 -26 88 -30
48 -8 49 -14 17 -88 -24 -53 -26 -55 -133 -110 -59 -31 -178 -101 -263 -156
-185 -120 -224 -134 -359 -128 -86 3 -104 7 -171 39 -170 82 -261 237 -247
421 10 125 46 317 78 413 44 131 184 388 281 513 77 101 78 103 78 159 0 29
-6 69 -14 88 -22 53 -99 128 -163 161 -51 26 -68 29 -148 29 -80 0 -96 -3
-145 -29 -30 -16 -86 -58 -125 -95 -46 -43 -103 -83 -164 -116 -102 -54 -123
-74 -105 -102 19 -30 65 -27 144 12 41 19 79 35 85 35 6 0 18 -22 27 -48 44
-124 118 -175 261 -180 50 -2 87 -8 87 -14 0 -6 -15 -36 -34 -67 -82 -136
-146 -291 -186 -448 -37 -150 -50 -170 -125 -197 -65 -23 -71 -33 -60 -93 4
-22 21 -50 48 -76 36 -35 45 -52 56 -107 7 -36 27 -94 44 -129 31 -64 120
-165 182 -209 l30 -21 -80 2 c-75 2 -80 1 -83 -20 -3 -18 7 -27 49 -49 104
-52 233 -74 379 -64 70 5 82 2 168 -32 190 -78 344 -104 516 -88 276 26 432
87 576 226 l75 72 85 4 c127 7 209 54 281 162 58 87 249 281 260 264 28 -43
23 -192 -10 -277 -31 -82 -84 -155 -146 -201 -45 -33 -55 -46 -55 -70 0 -67
64 -60 178 17 79 54 78 55 121 -82 64 -199 81 -438 61 -854 -11 -245 -11 -295
4 -452 25 -275 20 -459 -20 -699 -9 -52 -56 -282 -105 -511 -49 -230 -94 -452
-100 -495 -15 -106 -5 -280 21 -372 29 -102 57 -155 151 -278 45 -58 90 -127
102 -152 25 -58 34 -176 17 -235 -19 -69 -48 -98 -103 -104 l-47 -6 0 41 c0
50 -23 173 -45 232 -36 101 -119 190 -165 175 -35 -11 -33 -41 10 -118 45 -83
70 -179 70 -273 0 -53 -4 -65 -26 -87 -30 -30 -75 -42 -154 -41 -60 1 -155 36
-169 63 -5 9 -12 45 -16 81 -25 231 -111 400 -173 338 -18 -18 -15 -49 14
-135 18 -53 28 -109 31 -174 6 -95 6 -96 -22 -117 -35 -28 -83 -28 -166 -2
-78 25 -133 62 -176 118 -34 45 -43 73 -61 186 -7 46 -25 97 -55 155 -25 48
-50 112 -56 142 -7 30 -16 155 -21 279 -5 124 -15 263 -21 310 -7 47 -13 195
-13 330 -1 274 11 360 66 480 17 36 56 128 88 206 102 247 184 397 295 539 64
81 269 287 338 339 48 37 48 69 -1 74 -40 4 -108 -33 -215 -118 -230 -181
-352 -348 -522 -712 -110 -234 -168 -345 -229 -436 -92 -136 -237 -282 -406
-409 -93 -70 -328 -192 -375 -196 -28 -2 -30 0 -43 63 -9 40 -14 135 -15 245
-1 195 -3 180 73 470 54 205 57 299 15 393 -46 103 -154 187 -283 222 -37 9
-48 9 -68 -5 -37 -24 -26 -45 46 -91 99 -63 150 -113 178 -173 21 -47 24 -63
19 -125 -3 -39 -22 -125 -42 -191 -76 -256 -89 -326 -89 -495 0 -131 6 -190
37 -380 20 -124 40 -238 43 -255 3 -16 9 -120 14 -230 9 -243 23 -295 112
-418 171 -240 192 -286 186 -415 -3 -62 -9 -89 -24 -109 -31 -41 -41 -38 -47
14 -13 112 -103 273 -153 273 -16 0 -28 -8 -36 -25 -10 -22 -7 -37 20 -103 76
-184 59 -303 -52 -353 -66 -30 -154 -19 -176 21 -5 10 -14 85 -19 166 -14 201
-46 298 -106 326 -22 10 -29 9 -47 -10 l-22 -22 24 -67 c19 -57 24 -93 27
-218 5 -164 -1 -194 -44 -222 -42 -28 -144 -24 -208 8 -104 53 -129 130 -112
353 11 139 5 160 -42 154 -18 -2 -31 -13 -43 -38 -27 -55 -51 -214 -46 -308 4
-79 4 -82 -16 -76 -39 12 -107 65 -137 107 -52 71 -62 130 -53 286 11 174 8
223 -22 351 -14 58 -38 188 -55 290 -65 407 -107 577 -249 1000 -120 358 -149
478 -157 650 -7 130 -14 160 -42 160 -26 0 -37 -16 -54 -80 l-15 -55 -30 67
c-35 73 -109 312 -141 453 -22 93 -39 122 -65 112 -30 -12 -38 -57 -33 -182
11 -227 100 -488 236 -690 23 -33 41 -71 41 -84 0 -58 82 -330 172 -574 39
-104 67 -191 64 -194 -10 -10 -52 14 -97 54 -69 62 -114 142 -165 296 -150
452 -227 612 -370 766 -123 133 -254 184 -254 99 0 -6 41 -51 91 -101 184
-182 270 -360 409 -843 27 -94 65 -212 85 -263 19 -51 35 -94 35 -96 0 -2 -22
5 -50 16 -205 78 -454 68 -655 -25 -76 -36 -157 -102 -180 -147 -15 -29 -11
-59 9 -59 6 0 65 27 131 60 144 72 206 90 345 97 315 17 577 -149 597 -376 7
-79 -10 -139 -55 -192 -38 -45 -84 -69 -130 -69 -37 0 -52 17 -52 59 -1 97
-56 274 -100 321 -32 34 -42 36 -65 13 -20 -19 -17 -53 14 -167 12 -44 24
-117 28 -163 l6 -82 -35 -35 c-69 -69 -193 -70 -262 -1 -42 42 -56 108 -56
265 0 136 -10 161 -57 145 -20 -8 -32 -21 -41 -50 -15 -47 -20 -235 -8 -327
l8 -68 -33 0 c-43 1 -107 30 -139 64 -20 23 -25 40 -30 114 -6 94 -12 112 -39
112 -23 0 -48 -28 -63 -70 l-11 -34 -33 39 c-74 84 -101 219 -82 399 25 234
18 286 -70 516 -22 58 -53 161 -68 230 -37 168 -40 409 -6 565 59 275 182 549
391 875 48 74 121 191 162 259 74 123 404 571 420 571 5 0 5 -21 1 -47 -4 -27
-7 -151 -7 -278 0 -179 5 -253 19 -335 56 -316 203 -610 256 -511 12 23 -1 90
-53 291 -61 230 -72 324 -72 600 0 204 3 258 19 325 19 83 69 205 83 205 4 0
21 -21 37 -46 82 -129 293 -274 341 -234 29 24 15 51 -73 138 -100 99 -138
149 -189 258 -45 95 -55 193 -28 276 19 60 107 198 155 243 l31 30 22 -30 c63
-86 174 -210 239 -266 171 -147 423 -277 602 -310 67 -13 69 -12 87 10 14 17
16 28 9 41 -5 10 -74 49 -152 88 -79 39 -185 98 -235 131 -115 77 -254 208
-339 320 -77 102 -165 276 -194 381 -25 91 -25 109 -2 116 9 3 46 20 80 37 81
39 147 112 206 227 92 177 133 339 242 955 28 159 42 201 99 279 38 53 43 82
20 126 -36 69 -102 88 -153 45 -56 -47 -82 -131 -142 -455 -83 -446 -141 -659
-230 -845 -49 -103 -96 -158 -155 -180 -41 -16 -45 -16 -86 3 -168 75 -576
500 -682 711 -38 76 -42 92 -42 155 0 90 26 144 110 229 83 86 156 140 368
274 207 131 319 207 497 338 69 51 150 105 180 120 70 36 158 43 260 21 41 -9
87 -16 102 -16 44 0 57 40 32 103 -11 31 324 145 576 196 155 31 263 44 505
59 11 1 85 -3 164 -8z m941 -1654 c15 -19 9 -56 -11 -69 -21 -13 -69 15 -69
41 0 39 55 57 80 28z m-1576 -108 c13 -19 14 -25 2 -43 -22 -33 -57 -47 -81
-31 -28 19 -42 61 -25 80 20 25 86 21 104 -6z m1289 -839 c49 -26 43 -51 -17
-74 -24 -9 -56 -15 -72 -13 -27 3 -29 6 -27 42 2 22 8 43 15 48 19 12 76 10
101 -3z m-290 -30 c5 -9 7 -28 3 -43 -7 -28 -7 -28 -84 -24 -99 4 -108 23 -30
62 57 29 95 30 111 5z m198 -638 c70 -24 122 -51 179 -92 l44 -32 -53 -49
c-64 -58 -161 -110 -268 -140 -65 -19 -103 -23 -223 -23 -131 0 -155 3 -247
30 -57 16 -103 32 -103 35 0 10 279 195 340 226 129 65 233 79 331 45z m-3844
-859 c-55 -123 -82 -284 -74 -446 3 -61 10 -125 16 -142 11 -28 9 -36 -25 -85
-20 -30 -50 -81 -66 -114 -32 -63 -111 -262 -122 -307 -3 -16 -10 -28 -15 -28
-12 0 -57 108 -75 178 -60 230 -30 479 81 695 57 111 135 211 205 264 103 78
115 76 75 -15z m3523 -2183 c-55 -183 -246 -361 -490 -457 -86 -34 -270 -77
-280 -65 -4 4 -12 38 -17 75 l-9 67 65 20 c206 63 541 280 688 448 l58 65 3
-42 c2 -23 -6 -73 -18 -111z m50 -284 c0 -38 -7 -42 -33 -22 -16 11 -16 14 -2
35 23 32 35 27 35 -13z m-84 -166 c22 -6 52 -20 67 -32 26 -22 26 -23 29 -199
3 -165 2 -178 -14 -178 -15 0 -18 9 -18 60 0 75 -17 116 -69 173 -45 49 -65
58 -99 46 -31 -12 -28 -48 8 -106 19 -30 33 -69 37 -100 5 -46 3 -54 -20 -77
-23 -23 -34 -26 -97 -26 -95 0 -183 20 -380 84 -160 52 -165 55 -168 83 -3 29
-3 29 100 52 173 39 370 126 495 219 29 22 44 23 129 1z"/>
<path d="M6009 8096 c-60 -21 -96 -54 -124 -111 -63 -129 -30 -325 55 -325 50
0 60 21 60 126 0 113 19 160 77 195 47 28 63 47 63 75 0 47 -60 65 -131 40z"/>
<path d="M4632 7994 c-16 -11 -22 -24 -20 -42 2 -23 16 -34 83 -67 100 -50
125 -90 125 -196 0 -81 5 -98 37 -110 36 -14 79 12 94 58 34 102 1 231 -76
302 -68 62 -193 91 -243 55z"/>
<path d="M3888 5259 c-10 -5 -18 -16 -18 -23 0 -25 38 -46 263 -140 372 -157
511 -235 685 -386 71 -61 87 -71 115 -68 100 10 -22 165 -251 318 -110 74
-334 182 -449 218 -331 102 -316 99 -345 81z"/>
</g>
</svg>
