<?xml version="1.0" standalone="no"?>
<!DOCTYPE svg PUBLIC "-//W3C//DTD SVG 20010904//EN"
 "http://www.w3.org/TR/2001/REC-SVG-20010904/DTD/svg10.dtd">
<svg version="1.0" xmlns="http://www.w3.org/2000/svg"
 width="789.000000pt" height="905.000000pt" viewBox="0 0 789.000000 905.000000"
 preserveAspectRatio="xMidYMid meet">

<g transform="translate(0.000000,905.000000) scale(0.100000,-0.100000)"
fill="#000000" stroke="none">
<path d="M3760 8963 c-233 -11 -547 -57 -767 -113 -665 -169 -1216 -476 -1702
-945 -673 -651 -1062 -1426 -1187 -2365 -21 -159 -31 -944 -15 -1215 26 -453
119 -885 276 -1280 42 -106 209 -433 278 -542 189 -303 456 -620 726 -864 95
-85 188 -162 207 -173 63 -34 117 3 95 66 -7 19 -78 96 -183 197 -303 293
-490 515 -655 776 -376 596 -543 1132 -584 1880 -16 289 -7 977 15 1145 68
523 216 976 452 1386 334 581 775 1043 1299 1362 443 269 911 430 1480 507
165 22 575 31 756 16 1493 -125 2725 -1089 3210 -2511 84 -246 150 -545 179
-815 18 -158 25 -954 11 -1146 -32 -433 -101 -771 -232 -1134 -55 -153 -217
-494 -300 -633 -187 -312 -416 -586 -769 -920 -102 -96 -188 -183 -192 -193
-10 -25 6 -65 31 -79 43 -23 83 6 333 238 313 290 556 583 740 891 89 149 256
487 303 616 115 311 196 675 237 1065 18 171 18 1158 0 1319 -67 605 -266
1167 -601 1696 -252 400 -598 767 -973 1036 -731 524 -1573 774 -2468 732z"/>
<path d="M4110 8573 c-35 -2 -68 -9 -72 -16 -5 -7 -5 -128 -2 -269 l7 -257
-31 -30 c-25 -26 -38 -31 -78 -31 -40 0 -51 5 -78 33 l-31 34 -65 -28 c-35
-15 -66 -31 -67 -36 -7 -20 58 -103 101 -128 115 -68 323 -26 385 76 39 64 44
116 36 395 -6 236 -9 264 -24 262 -9 -1 -45 -3 -81 -5z"/>
<path d="M3300 8501 c-8 -4 -107 -28 -219 -52 -123 -26 -205 -49 -208 -57 -5
-11 123 -677 133 -693 2 -4 41 2 86 13 46 10 159 34 252 53 93 19 170 36 173
39 2 2 -2 37 -9 77 -10 54 -18 74 -28 72 -8 -1 -79 -15 -158 -32 -78 -17 -149
-31 -157 -31 -14 0 -42 106 -32 117 8 8 206 53 232 53 13 0 26 4 29 8 5 9 -16
148 -25 156 -3 3 -65 -8 -138 -25 -73 -16 -134 -29 -136 -27 -8 9 -23 104 -17
110 4 3 72 19 152 35 l145 29 3 40 c2 21 -1 57 -5 79 -7 32 -13 40 -33 42 -14
2 -32 -1 -40 -6z"/>
<path d="M4708 8471 c-73 -24 -127 -77 -154 -153 -41 -118 9 -214 144 -274
115 -51 148 -98 102 -144 -42 -42 -158 -16 -235 52 l-47 41 -56 -57 -57 -57
45 -40 c61 -53 149 -96 239 -115 152 -31 258 23 297 152 18 61 18 106 -2 152
-23 56 -60 89 -157 139 -95 49 -115 72 -99 108 22 48 86 44 177 -11 67 -40 70
-39 140 22 47 42 44 50 -36 106 -97 67 -230 102 -301 79z"/>
<path d="M3686 7610 c-409 -37 -733 -129 -1111 -315 -494 -243 -849 -569
-1143 -1044 -192 -313 -306 -601 -381 -963 -51 -251 -56 -304 -55 -603 0 -235
4 -302 22 -420 59 -379 175 -709 357 -1010 l74 -123 -11 -153 -11 -154 38
-155 c21 -85 55 -205 76 -267 36 -102 39 -119 38 -215 -1 -117 11 -180 47
-253 28 -56 100 -135 124 -135 8 0 28 -16 43 -35 37 -46 94 -74 183 -90 75
-13 119 -10 143 9 8 6 48 11 90 11 64 0 85 5 129 27 48 25 97 38 204 53 70 11
121 80 135 187 4 28 10 37 28 40 32 7 34 -4 45 -291 12 -300 20 -334 98 -430
48 -59 107 -84 183 -79 42 3 59 1 59 -8 0 -19 57 -62 98 -74 20 -6 62 -14 93
-17 63 -6 118 13 147 52 l17 22 44 -23 c59 -32 106 -30 172 5 30 16 74 39 99
50 105 48 114 55 154 135 35 67 40 84 40 149 1 92 -22 143 -133 290 -44 60
-81 110 -81 111 0 1 13 12 29 23 l28 22 79 -25 c136 -44 254 -42 299 3 13 13
25 13 76 4 43 -7 67 -7 81 0 11 6 21 9 23 7 14 -13 57 -155 65 -211 12 -81 52
-169 95 -204 39 -34 114 -68 194 -89 82 -20 201 -16 228 8 18 17 21 16 57 -10
33 -23 51 -28 119 -31 97 -4 154 11 169 45 8 18 19 24 43 24 45 0 127 44 173
94 70 76 76 195 16 306 -15 27 -57 90 -95 140 l-68 91 45 27 c458 270 791 582
1057 987 315 481 473 1060 454 1660 -25 759 -346 1482 -898 2020 -210 205
-320 291 -521 411 -476 282 -929 411 -1483 419 -121 2 -264 0 -319 -5z m485
-151 c383 -30 703 -117 1034 -279 285 -140 517 -309 741 -542 446 -465 710
-1006 788 -1618 65 -509 -9 -1025 -214 -1490 -162 -367 -424 -710 -760 -992
-102 -85 -437 -308 -464 -308 -2 0 -7 17 -11 39 -10 60 12 220 55 404 71 299
93 443 93 617 1 382 -21 1075 -36 1140 -19 81 -42 151 -72 214 -22 45 -22 51
-9 88 27 77 14 150 -40 220 l-24 33 37 77 c74 151 96 322 67 507 -23 148 -24
145 19 119 85 -49 181 8 287 171 146 225 202 368 202 521 1 77 -2 92 -32 153
-49 100 -123 156 -355 273 -104 52 -233 121 -287 154 -172 105 -290 150 -391
150 -32 0 -87 15 -166 44 -213 80 -425 111 -691 103 -287 -9 -489 -55 -691
-156 -47 -24 -100 -43 -132 -46 -128 -16 -209 -55 -416 -207 -78 -57 -201
-141 -274 -188 -161 -103 -271 -208 -317 -300 -27 -53 -32 -74 -32 -134 0 -85
26 -185 65 -252 28 -48 259 -287 382 -396 l62 -54 -11 -70 c-12 -77 -5 -222
12 -272 12 -31 10 -34 -43 -92 -90 -97 -116 -198 -79 -303 l17 -48 -63 -66
c-96 -99 -353 -444 -405 -543 -15 -30 -37 -64 -46 -75 -32 -35 -101 -158 -123
-218 -45 -125 -49 -67 -13 185 14 95 23 185 19 200 -7 36 -49 68 -88 68 -54 0
-130 -46 -201 -122 -121 -128 -198 -268 -229 -418 -14 -65 -14 -65 -26 -35
-48 121 -100 318 -129 490 -31 180 -41 308 -41 504 0 705 277 1396 771 1924
227 244 576 479 919 620 412 169 888 242 1341 206z m94 -359 c212 -34 313 -63
478 -137 75 -33 79 -34 104 -18 38 25 88 7 266 -97 84 -49 195 -109 247 -134
179 -85 222 -109 278 -154 101 -82 124 -166 81 -306 -21 -71 -99 -225 -153
-304 -40 -60 -116 -140 -131 -140 -18 0 -80 72 -105 120 -12 23 -45 135 -75
248 -93 359 -140 479 -212 542 -90 79 -157 -8 -79 -103 80 -98 157 -364 240
-822 54 -297 62 -403 42 -505 -19 -91 -73 -211 -118 -263 l-29 -32 6 55 c9 84
-28 266 -75 372 -42 95 -101 187 -149 232 -29 28 -30 30 -12 43 10 7 33 34 50
60 24 36 31 57 31 95 0 26 3 48 6 48 3 0 26 -12 50 -26 58 -34 149 -40 149
-10 0 15 -15 26 -59 43 -39 15 -78 41 -117 78 -69 66 -110 85 -180 85 -84 0
-115 -22 -156 -106 -19 -41 -32 -82 -30 -91 3 -10 8 -30 11 -45 4 -16 62 -88
137 -170 115 -125 136 -154 179 -243 63 -130 84 -215 84 -335 0 -160 -41 -244
-134 -275 -59 -19 -94 -14 -141 22 -45 33 -104 58 -170 72 l-54 11 0 84 0 84
61 64 c55 57 134 186 134 218 0 6 -12 36 -26 66 -38 80 -66 94 -185 94 -123 0
-197 -15 -261 -54 -104 -63 -120 -134 -53 -232 48 -69 122 -138 167 -154 36
-13 37 -15 40 -74 2 -34 7 -68 11 -76 6 -13 -25 -28 -170 -79 -257 -91 -302
-102 -412 -102 -109 1 -134 12 -206 94 -38 43 -48 50 -63 41 -62 -39 19 -173
137 -228 38 -17 65 -21 151 -21 l105 1 239 82 c287 99 314 102 425 46 40 -20
70 -41 68 -47 -6 -20 -123 -94 -184 -117 -84 -32 -202 -36 -508 -15 -281 19
-315 17 -315 -24 0 -39 169 -78 448 -102 297 -27 447 14 620 170 31 27 56 40
86 44 111 15 194 62 246 138 17 25 45 56 62 69 30 22 31 22 45 4 23 -31 27
-65 15 -122 -14 -65 -47 -111 -113 -159 -27 -19 -49 -41 -49 -48 0 -46 92 -43
151 5 l37 29 11 -27 c45 -114 61 -300 61 -682 -1 -146 4 -334 10 -419 16 -244
-4 -404 -96 -795 -38 -161 -54 -275 -54 -402 0 -72 4 -88 31 -140 18 -32 58
-88 90 -124 130 -143 183 -249 163 -327 -7 -29 -21 -46 -64 -76 l-55 -38 -7
60 c-13 114 -87 251 -135 251 -32 0 -30 -34 6 -120 39 -91 56 -176 42 -212
-13 -33 -41 -42 -124 -36 -96 6 -118 26 -140 129 -22 97 -51 170 -77 194 -26
23 -65 3 -55 -28 13 -47 55 -248 55 -268 0 -21 -3 -21 -72 -14 -94 9 -192 41
-228 75 -23 22 -29 37 -35 96 -4 38 -27 129 -52 202 -39 117 -46 150 -54 265
-5 73 -14 186 -19 252 -6 66 -10 181 -10 255 0 135 0 136 36 210 20 41 59 140
86 220 28 80 61 168 73 196 36 80 137 225 235 334 87 98 106 134 75 146 -32
13 -212 -155 -302 -281 -72 -101 -92 -139 -177 -340 -42 -99 -92 -205 -113
-235 -66 -99 -278 -305 -387 -377 -147 -98 -265 -158 -279 -144 -8 8 -12 74
-12 219 0 199 2 212 33 347 27 110 33 155 29 210 -5 90 -27 135 -66 135 -16 0
-31 4 -33 9 -1 5 -34 30 -72 56 -76 51 -119 57 -124 19 -2 -17 14 -34 79 -79
121 -86 123 -95 66 -335 -54 -227 -60 -421 -16 -620 16 -76 22 -134 21 -210
-3 -186 29 -278 147 -425 40 -49 81 -107 92 -127 40 -77 34 -178 -15 -235
l-23 -26 -5 54 c-11 105 -71 234 -107 227 -21 -4 -21 -61 4 -200 16 -92 16
-109 4 -124 -18 -22 -71 -44 -107 -44 -32 0 -72 32 -72 59 0 29 -58 190 -84
236 -34 57 -50 69 -66 50 -10 -12 -8 -30 8 -92 36 -136 44 -188 33 -216 -14
-37 -60 -57 -129 -57 -58 0 -60 1 -95 45 -42 55 -61 136 -62 270 0 89 0 90
-25 90 -18 0 -30 -9 -43 -35 -15 -29 -18 -52 -13 -140 2 -58 8 -115 11 -127 5
-17 3 -23 -7 -23 -31 0 -84 48 -113 100 -29 55 -29 55 -31 240 -1 142 -6 212
-23 300 -12 63 -33 185 -47 270 -35 219 -59 316 -116 470 -28 74 -56 169 -64
210 -34 185 -66 371 -76 435 -10 76 -28 105 -63 105 -40 0 -48 -23 -43 -118
l5 -87 -53 110 c-105 218 -135 354 -143 640 l-6 190 47 95 c74 152 76 152 60
3 -14 -131 -6 -331 18 -478 5 -33 12 -82 16 -108 9 -78 66 -114 99 -64 14 21
13 42 -5 207 -22 204 -25 329 -10 481 10 96 33 242 46 280 3 13 25 -3 87 -65
83 -83 134 -112 207 -117 44 -2 50 1 50 25 0 28 -15 42 -78 71 -70 32 -108 69
-154 148 -37 64 -42 81 -51 169 -8 91 -7 101 12 141 12 23 45 63 74 89 l52 47
34 -65 c83 -157 380 -360 565 -386 69 -10 78 -9 96 7 24 21 23 64 0 76 -8 4
-46 17 -85 28 -73 21 -226 109 -335 195 -117 91 -183 215 -212 401 l-11 72 47
43 c54 50 141 171 184 256 45 89 68 176 107 409 46 267 59 321 107 424 21 46
38 92 38 102 0 25 -48 61 -74 53 -36 -10 -80 -69 -108 -145 -38 -101 -52 -164
-88 -379 -17 -102 -40 -221 -51 -265 -26 -101 -89 -223 -149 -288 l-47 -51
-69 56 c-38 32 -137 124 -219 205 -125 123 -157 161 -189 221 -43 84 -56 165
-36 227 23 69 131 168 315 290 94 62 224 152 290 200 122 89 203 135 241 135
12 0 34 12 49 26 25 23 30 24 40 11 10 -14 17 -14 66 3 30 10 92 34 139 53
102 42 165 59 330 86 152 25 172 27 330 29 84 1 164 -4 245 -18z m540 -1190
c21 -23 13 -37 -25 -42 -17 -2 -26 2 -28 15 -9 46 22 62 53 27z m-391 -582
c-15 -51 -54 -70 -85 -42 -38 34 -14 63 54 64 35 0 38 -2 31 -22z m166 12 c0
-5 -10 -20 -22 -32 l-23 -23 -3 24 c-4 23 11 41 36 41 6 0 12 -4 12 -10z
m-2845 -1217 c-28 -144 -36 -199 -41 -284 -8 -109 9 -164 52 -175 23 -6 22 -8
-19 -34 -57 -36 -108 -97 -165 -197 -26 -46 -50 -83 -53 -83 -4 0 -19 28 -35
63 -27 57 -29 70 -28 177 1 101 5 127 32 210 36 110 103 219 187 303 66 68 80
72 70 20z m334 -566 c60 -40 119 -123 273 -387 97 -166 126 -225 143 -291 20
-77 60 -192 110 -312 46 -110 44 -123 -11 -98 -49 22 -51 27 -128 278 -91 293
-252 590 -308 568 -10 -4 -18 -15 -18 -24 0 -9 31 -89 69 -177 78 -183 135
-350 150 -444 13 -82 22 -225 15 -232 -3 -3 -26 6 -51 20 -40 22 -62 26 -152
30 -88 3 -116 0 -163 -17 -99 -34 -218 -126 -218 -167 0 -20 38 -32 76 -24 18
4 52 21 76 38 23 17 70 38 102 48 103 29 248 4 307 -52 15 -14 46 -31 70 -38
37 -11 49 -21 77 -67 41 -69 51 -104 59 -209 6 -95 -2 -111 -64 -124 l-31 -7
-11 58 c-17 89 -29 124 -59 178 -23 43 -31 50 -57 50 -29 0 -30 -2 -33 -48 -2
-30 6 -80 22 -135 14 -48 26 -92 26 -99 0 -14 -59 -51 -101 -63 -46 -14 -91 9
-114 56 -10 21 -22 78 -26 126 -10 103 -21 131 -52 126 -16 -2 -27 -16 -40
-53 -22 -62 -17 -149 12 -224 12 -28 21 -54 21 -57 0 -8 -92 7 -127 21 -51 21
-67 57 -73 159 -5 84 -7 91 -25 88 -28 -4 -65 -48 -65 -78 0 -38 -15 -21 -39
44 -18 49 -23 85 -25 198 -3 121 -7 149 -30 214 -40 111 -106 387 -106 441 0
171 37 332 110 484 49 100 88 148 163 196 56 36 62 38 132 35 60 -2 80 -7 114
-29z m2245 -1144 l6 -73 -26 11 c-21 7 -31 6 -45 -7 -27 -24 -24 -42 16 -98
38 -54 68 -134 63 -168 -3 -20 -9 -23 -43 -23 l-40 0 -40 82 c-58 119 -112
168 -143 131 -7 -9 0 -33 24 -83 36 -74 67 -165 59 -173 -13 -13 -96 -19 -159
-11 -73 9 -196 45 -196 57 1 32 23 59 89 109 115 88 283 245 353 331 l63 76 6
-44 c3 -25 9 -78 13 -117z"/>
<path d="M4664 6366 c-66 -29 -124 -133 -124 -224 0 -60 26 -112 55 -112 20 0
23 6 29 59 10 88 51 161 104 186 30 14 42 26 42 40 0 50 -52 75 -106 51z"/>
<path d="M3720 6323 c-29 -11 -60 -47 -60 -70 0 -21 5 -23 45 -23 95 0 148
-45 185 -155 19 -57 25 -66 44 -63 19 3 21 10 24 68 3 73 -15 133 -56 182 -43
51 -129 80 -182 61z"/>
<path d="M3599 6005 c-66 -24 -102 -47 -148 -94 -25 -25 -74 -60 -109 -76 -50
-24 -62 -34 -60 -50 3 -17 9 -19 43 -17 22 2 59 14 82 27 l43 24 6 -27 c12
-53 54 -111 98 -137 59 -34 96 -32 161 10 30 19 55 31 55 27 -1 -4 -30 -43
-65 -87 -61 -75 -128 -196 -176 -317 -20 -51 -40 -214 -31 -250 8 -33 40 -21
51 20 5 20 21 84 36 141 36 143 62 193 201 381 34 47 70 103 80 125 23 54 24
188 1 212 -9 10 -33 37 -53 61 l-36 42 -72 -1 c-39 0 -87 -6 -107 -14z m116
-122 c-10 -40 -24 -53 -56 -53 -29 0 -59 22 -59 45 0 13 55 32 99 34 20 1 22
-2 16 -26z"/>
<path d="M3229 4220 c-23 -15 42 -62 202 -148 85 -45 206 -121 269 -167 117
-87 152 -100 158 -59 2 15 -15 36 -60 76 -102 88 -213 158 -368 229 -160 73
-182 80 -201 69z"/>
<path d="M1811 1318 c-16 -35 -60 -128 -99 -208 -124 -257 -172 -363 -172
-375 0 -16 291 -160 367 -181 53 -14 68 -15 107 -4 120 33 190 206 115 286
l-22 24 38 0 c31 0 45 7 80 43 78 78 82 200 9 271 -37 36 -349 206 -377 206
-11 0 -27 -23 -46 -62z m209 -186 c25 -14 53 -32 63 -40 35 -30 10 -102 -36
-102 -26 0 -157 60 -157 72 0 5 11 31 25 58 28 55 28 55 105 12z m-137 -248
c98 -49 126 -93 91 -142 -20 -29 -65 -29 -129 2 -91 43 -91 43 -59 109 16 31
32 57 36 57 5 0 32 -12 61 -26z"/>
<path d="M5605 1154 c-110 -52 -203 -98 -207 -102 -4 -4 34 -97 83 -207 50
-110 113 -253 141 -317 29 -65 57 -118 63 -118 18 0 416 187 432 203 12 12 11
21 -7 68 -33 87 -23 86 -156 24 -65 -30 -131 -62 -146 -71 l-28 -15 -25 57
c-14 31 -24 59 -22 60 2 2 56 28 120 59 75 35 117 60 117 70 0 9 -13 42 -30
74 l-29 59 -110 -49 c-61 -27 -118 -49 -129 -49 -12 0 -25 15 -39 46 -19 41
-20 46 -5 51 41 13 272 127 272 133 0 4 -12 33 -26 64 -20 43 -30 56 -47 56
-12 0 -112 -43 -222 -96z"/>
<path d="M2647 1009 c-171 -40 -288 -224 -274 -429 5 -83 16 -113 62 -179 90
-131 317 -188 469 -118 99 46 190 170 217 297 27 125 -20 267 -112 340 -97 77
-252 115 -362 89z m193 -176 c74 -30 104 -80 103 -173 -1 -117 -73 -230 -157
-246 -51 -9 -119 3 -158 29 -101 69 -105 239 -7 350 57 66 126 78 219 40z"/>
<path d="M5081 970 c-35 -11 -66 -22 -69 -25 -3 -3 7 -51 22 -107 45 -169 158
-573 162 -579 6 -10 156 34 161 48 5 14 -28 141 -125 478 -40 136 -62 200 -72
202 -8 1 -44 -7 -79 -17z"/>
<path d="M4682 885 c-34 -7 -65 -14 -67 -17 -3 -3 9 -91 25 -198 17 -106 30
-196 28 -200 -2 -7 -251 276 -309 351 -14 19 -19 20 -100 9 -46 -6 -85 -13
-87 -14 -1 -2 13 -129 32 -282 19 -153 38 -314 41 -357 5 -52 12 -80 21 -84 7
-3 46 -1 86 4 l73 8 -3 60 c-2 33 -12 128 -22 210 -10 83 -17 152 -15 153 2 2
68 -74 148 -170 79 -95 154 -182 166 -192 20 -18 28 -19 97 -9 41 6 78 14 82
17 3 4 -14 167 -38 364 l-45 357 -25 2 c-14 0 -53 -5 -88 -12z"/>
<path d="M3366 859 c-2 -8 -7 -45 -10 -84 -3 -38 -18 -197 -32 -352 -15 -156
-26 -285 -23 -287 2 -2 42 -5 89 -7 l85 -4 16 203 c9 111 18 205 21 207 2 3
57 -94 122 -215 l118 -219 62 -6 c115 -13 110 -17 118 115 4 63 17 227 28 364
17 201 18 251 8 258 -7 4 -47 8 -89 8 l-77 0 -6 -62 c-3 -35 -8 -129 -12 -210
-3 -82 -9 -148 -13 -148 -6 0 -156 277 -207 383 -25 51 -31 57 -59 57 -16 0
-54 3 -82 6 -40 5 -54 3 -57 -7z"/>
</g>
</svg>
